<svg xmlns="http://www.w3.org/2000/svg" viewBox="0 0 64 64" role="img" aria-label="Caf.ai"><title>Caf.ai</title><clipPath id="t1f"><rect width="64" height="64" rx="16"/></clipPath><rect width="64" height="64" rx="16" fill="#0F6B5C"/><g clip-path="url(#t1f)"><g transform="translate(-6.57 3.68) scale(1.33)"><radialGradient id="m2cr" cx="50%" cy="45%" r="60%"><stop offset="0" stop-color="#7E5030"/><stop offset=".7" stop-color="#6B4226"/><stop offset="1" stop-color="#4E2F1A"/></radialGradient><linearGradient id="m2bd" x1="0" x2="1" y1="0" y2="0"><stop offset="0" stop-color="#F3EADB"/><stop offset=".18" stop-color="#FFFDF8"/><stop offset=".55" stop-color="#FFF8EE"/><stop offset="1" stop-color="#E6D9C3"/></linearGradient><linearGradient id="m2hd" x1="0" x2="1"><stop offset="0" stop-color="#F6EEE1"/><stop offset="1" stop-color="#E2D4BC"/></linearGradient><path d="M46.6 32.6c9-1.6 10.2 13-1.4 13.2" fill="none" stroke="url(#m2hd)" stroke-width="4.4" stroke-linecap="round"/><path d="M11 29 L12.6 48 A16.4 8 0 0 0 45.4 48 L47 29 Z" fill="url(#m2bd)" /><clipPath id="m2bc"><path d="M11 29 L12.6 48 A16.4 8 0 0 0 45.4 48 L47 29 Z"/></clipPath><ellipse cx="29" cy="30" rx="18" ry="9" fill="#E6D8C0" clip-path="url(#m2bc)"/><ellipse cx="29" cy="29" rx="18" ry="9" fill="#FFFFFF" /><clipPath id="m2c"><ellipse cx="29" cy="29.3" rx="15.7" ry="7.3"/></clipPath><ellipse cx="29" cy="29.3" rx="15.7" ry="7.3" fill="#E5D6BF" /><g clip-path="url(#m2c)"><ellipse cx="29" cy="30.4" rx="15" ry="6.6" fill="url(#m2cr)"/><ellipse cx="29" cy="30.3" rx="12.2" ry="5.3" fill="#8C5C37"/><filter id="m2b" x="-20%" y="-50%" width="140%" height="200%"><feGaussianBlur stdDeviation=".55"/></filter><g filter="url(#m2b)" opacity=".55"><path d="M-7.18 4.08L-7.18 4.08Q-7.75 4.08-8.19 3.85Q-8.64 3.63-8.88 3.20Q-9.13 2.77-9.13 2.13L-9.13 2.13Q-9.13 1.57-8.91 1.20Q-8.70 0.82-8.28 0.58Q-7.87 0.35-7.26 0.19Q-6.65 0.04-5.87-0.08L-5.87-0.08Q-5.45-0.14-5.18-0.20Q-4.92-0.26-4.79-0.40Q-4.66-0.53-4.66-0.79L-4.66-0.79Q-4.66-1.16-4.92-1.42Q-5.18-1.68-5.74-1.68L-5.74-1.68Q-6.11-1.68-6.43-1.55Q-6.75-1.42-6.98-1.16Q-7.21-0.90-7.31-0.49L-7.31-0.49L-8.96-1.00Q-8.80-1.53-8.51-1.92Q-8.22-2.31-7.80-2.58Q-7.39-2.85-6.85-2.98Q-6.32-3.11-5.70-3.11L-5.70-3.11Q-4.70-3.11-4.07-2.79Q-3.44-2.47-3.12-1.80Q-2.81-1.13-2.81-0.08L-2.81-0.08L-2.81 1.09Q-2.81 1.55-2.79 2.01Q-2.77 2.48-2.74 2.96Q-2.71 3.43-2.67 3.90L-2.67 3.90L-4.32 3.90Q-4.37 3.57-4.42 3.15Q-4.46 2.73-4.49 2.30L-4.49 2.30L-4.72 2.30Q-4.90 2.79-5.24 3.20Q-5.58 3.60-6.07 3.84Q-6.56 4.08-7.18 4.08ZM-6.39 2.73L-6.39 2.73Q-6.14 2.73-5.89 2.64Q-5.63 2.55-5.39 2.39Q-5.15 2.22-4.95 1.98Q-4.75 1.73-4.62 1.42L-4.62 1.42L-4.64 0.32L-4.35 0.39Q-4.58 0.56-4.89 0.66Q-5.20 0.75-5.53 0.81Q-5.87 0.86-6.19 0.92Q-6.52 0.99-6.77 1.09Q-7.02 1.20-7.17 1.37Q-7.32 1.55-7.32 1.86L-7.32 1.86Q-7.32 2.26-7.06 2.50Q-6.80 2.73-6.39 2.73ZM0.00 4.09L0.00 4.09Q-0.70 4.09-1.05 3.80Q-1.40 3.50-1.40 2.87L-1.40 2.87Q-1.40 2.23-1.05 1.93Q-0.70 1.63 0.00 1.63L0.00 1.63Q0.72 1.63 1.07 1.93Q1.42 2.23 1.42 2.87L1.42 2.87Q1.42 4.09 0.00 4.09ZM4.98 3.90L3.11 3.90L3.11-2.93L4.98-2.93L4.98 3.90ZM4.06-3.95L4.06-3.95Q3.51-3.95 3.22-4.18Q2.93-4.41 2.93-4.85L2.93-4.85Q2.93-5.30 3.22-5.54Q3.51-5.77 4.06-5.77L4.06-5.77Q4.62-5.77 4.91-5.54Q5.20-5.30 5.20-4.85L5.20-4.85Q5.20-4.42 4.91-4.19Q4.62-3.95 4.06-3.95ZM7.89 4.09L7.89 4.09Q7.18 4.09 6.83 3.80Q6.48 3.50 6.48 2.87L6.48 2.87Q6.48 2.23 6.83 1.93Q7.18 1.63 7.89 1.63L7.89 1.63Q8.60 1.63 8.96 1.93Q9.31 2.23 9.31 2.87L9.31 2.87Q9.31 4.09 7.89 4.09Z" transform="translate(29 30.4) scale(1 .64)" fill="#FFF4E2" stroke="#FFF4E2" stroke-width="1.6" stroke-linejoin="round"/></g><path d="M-7.18 4.08L-7.18 4.08Q-7.75 4.08-8.19 3.85Q-8.64 3.63-8.88 3.20Q-9.13 2.77-9.13 2.13L-9.13 2.13Q-9.13 1.57-8.91 1.20Q-8.70 0.82-8.28 0.58Q-7.87 0.35-7.26 0.19Q-6.65 0.04-5.87-0.08L-5.87-0.08Q-5.45-0.14-5.18-0.20Q-4.92-0.26-4.79-0.40Q-4.66-0.53-4.66-0.79L-4.66-0.79Q-4.66-1.16-4.92-1.42Q-5.18-1.68-5.74-1.68L-5.74-1.68Q-6.11-1.68-6.43-1.55Q-6.75-1.42-6.98-1.16Q-7.21-0.90-7.31-0.49L-7.31-0.49L-8.96-1.00Q-8.80-1.53-8.51-1.92Q-8.22-2.31-7.80-2.58Q-7.39-2.85-6.85-2.98Q-6.32-3.11-5.70-3.11L-5.70-3.11Q-4.70-3.11-4.07-2.79Q-3.44-2.47-3.12-1.80Q-2.81-1.13-2.81-0.08L-2.81-0.08L-2.81 1.09Q-2.81 1.55-2.79 2.01Q-2.77 2.48-2.74 2.96Q-2.71 3.43-2.67 3.90L-2.67 3.90L-4.32 3.90Q-4.37 3.57-4.42 3.15Q-4.46 2.73-4.49 2.30L-4.49 2.30L-4.72 2.30Q-4.90 2.79-5.24 3.20Q-5.58 3.60-6.07 3.84Q-6.56 4.08-7.18 4.08ZM-6.39 2.73L-6.39 2.73Q-6.14 2.73-5.89 2.64Q-5.63 2.55-5.39 2.39Q-5.15 2.22-4.95 1.98Q-4.75 1.73-4.62 1.42L-4.62 1.42L-4.64 0.32L-4.35 0.39Q-4.58 0.56-4.89 0.66Q-5.20 0.75-5.53 0.81Q-5.87 0.86-6.19 0.92Q-6.52 0.99-6.77 1.09Q-7.02 1.20-7.17 1.37Q-7.32 1.55-7.32 1.86L-7.32 1.86Q-7.32 2.26-7.06 2.50Q-6.80 2.73-6.39 2.73ZM0.00 4.09L0.00 4.09Q-0.70 4.09-1.05 3.80Q-1.40 3.50-1.40 2.87L-1.40 2.87Q-1.40 2.23-1.05 1.93Q-0.70 1.63 0.00 1.63L0.00 1.63Q0.72 1.63 1.07 1.93Q1.42 2.23 1.42 2.87L1.42 2.87Q1.42 4.09 0.00 4.09ZM4.98 3.90L3.11 3.90L3.11-2.93L4.98-2.93L4.98 3.90ZM4.06-3.95L4.06-3.95Q3.51-3.95 3.22-4.18Q2.93-4.41 2.93-4.85L2.93-4.85Q2.93-5.30 3.22-5.54Q3.51-5.77 4.06-5.77L4.06-5.77Q4.62-5.77 4.91-5.54Q5.20-5.30 5.20-4.85L5.20-4.85Q5.20-4.42 4.91-4.19Q4.62-3.95 4.06-3.95ZM7.89 4.09L7.89 4.09Q7.18 4.09 6.83 3.80Q6.48 3.50 6.48 2.87L6.48 2.87Q6.48 2.23 6.83 1.93Q7.18 1.63 7.89 1.63L7.89 1.63Q8.60 1.63 8.96 1.93Q9.31 2.23 9.31 2.87L9.31 2.87Q9.31 4.09 7.89 4.09Z" transform="translate(29 30.4) scale(1 .64)" fill="#FFF4E2"/></g><linearGradient id="m2s" gradientUnits="userSpaceOnUse" x1="0" y1="18" x2="0" y2="3"><stop offset="0" stop-color="#FFFAF3"/><stop offset="1" stop-color="#FFFAF3" stop-opacity="0.25"/></linearGradient><path d="M21 18c-1.7-2 1.7-3.6 0-6s1.7-3.6 0-6" fill="none" stroke="url(#m2s)" stroke-width="2" stroke-linecap="round"/><path d="M29 17c-1.7-2 1.7-3.6 0-6s1.7-3.6 0-6" fill="none" stroke="url(#m2s)" stroke-width="2" stroke-linecap="round"/><path d="M37 18c1.7-2 -1.7-3.6 0-6s-1.7-3.6 0-6" fill="none" stroke="url(#m2s)" stroke-width="2" stroke-linecap="round"/></g></g></svg>
